<svg width="86" height="95" viewBox="0 0 86 95" fill="none" xmlns="http://www.w3.org/2000/svg">
<g filter="url(#filter0_d_32_139)">
<path d="M34.0063 43.4644C29.5711 40.8032 26.4842 38.8162 24.7456 37.5034C23.3263 36.368 22.1554 35.339 21.2329 34.4165C20.2039 33.3875 19.3701 32.1634 18.7314 30.7441C17.8799 28.7572 17.667 26.646 18.0928 24.4106C18.554 22.5656 19.4233 20.7738 20.7007 19.0352C22.1909 17.1901 23.6457 15.7886 25.0649 14.8306C27.0519 13.2694 28.897 12.063 30.6001 11.2114C35.1063 8.83415 39.6479 6.90039 44.2251 5.41016C48.6248 3.88444 53.4681 2.62484 58.7549 1.63135C61.5225 1.06364 63.0127 0.762044 63.2256 0.726562C66.1351 0.371745 68.814 0.194336 71.2622 0.194336C73.0008 0.194336 74.5975 0.300781 76.0522 0.513672C76.478 0.584635 77.1699 0.779785 78.1279 1.09912C78.873 1.38298 79.494 1.73779 79.9907 2.16357C80.6649 2.6958 81.1084 3.3877 81.3213 4.23926C81.5342 5.16178 81.5342 5.96012 81.3213 6.63428C81.1084 7.34391 80.7358 8.03581 80.2036 8.70996C79.8133 9.27767 79.2633 9.86312 78.5537 10.4663C77.1699 11.6727 76.1232 12.5065 75.4136 12.9678C75.4136 12.9678 74.7217 13.429 73.3379 14.3516C73.125 14.4935 72.7702 14.7419 72.2734 15.0967C71.8122 15.416 71.4751 15.6466 71.2622 15.7886C69.6655 16.6047 68.6188 17.1546 68.1221 17.4385C67.2705 17.8288 66.3835 17.882 65.4609 17.5981C64.5739 17.3143 63.8997 16.8175 63.4385 16.1079C62.4095 14.4048 63.3853 12.9146 66.3657 11.6372C67.0754 11.3534 68.3527 10.7324 70.1978 9.77441C70.3397 9.70345 70.7655 9.47282 71.4751 9.08252C72.1847 8.69222 72.7879 8.35514 73.2847 8.07129C73.8169 7.78743 74.3846 7.45036 74.9878 7.06006C75.591 6.66976 76.0522 6.31494 76.3716 5.99561L76.478 5.78271L77.4893 4.77148L77.7021 4.45215V5.09082C77.8441 5.55208 77.986 5.78271 78.1279 5.78271L78.0215 5.67627C77.9505 5.64079 77.8086 5.60531 77.5957 5.56982C77.3828 5.49886 77.2409 5.44564 77.1699 5.41016C76.6377 5.33919 76.0877 5.32145 75.52 5.35693C74.9523 5.35693 74.2249 5.39242 73.3379 5.46338C72.4508 5.49886 71.8654 5.5166 71.5815 5.5166C70.3042 5.5166 69.0623 5.62305 67.856 5.83594C66.6496 6.04883 65.7448 6.26172 65.1416 6.47461L64.29 6.74072C66.3125 6.10205 68.743 5.78271 71.5815 5.78271C71.7944 5.78271 72.3267 5.76497 73.1782 5.72949C74.0653 5.69401 74.8459 5.67627 75.52 5.67627C76.2297 5.67627 76.7441 5.71175 77.0635 5.78271C77.1344 5.8182 77.2409 5.85368 77.3828 5.88916C77.5247 5.88916 77.6312 5.9069 77.7021 5.94238C77.8086 5.94238 77.8796 5.96012 77.915 5.99561C77.7376 5.8182 77.5602 5.55208 77.3828 5.19727C77.3118 4.91341 77.2764 4.66504 77.2764 4.45215V4.39893C77.2764 4.39893 77.2409 4.45215 77.1699 4.55859L76.6377 5.09082L77.1699 4.55859C77.2409 4.41667 77.2764 4.3457 77.2764 4.3457V4.45215C77.2764 4.66504 77.3118 4.91341 77.3828 5.19727L77.4893 5.5166C77.5247 5.55208 77.5602 5.64079 77.5957 5.78271C77.6312 5.88916 77.6667 5.96012 77.7021 5.99561L77.8086 6.10205C77.8441 6.13753 77.8796 6.13753 77.915 6.10205H77.8086C77.5247 5.96012 77.2764 5.88916 77.0635 5.88916C76.957 5.88916 76.7796 5.85368 76.5312 5.78271C76.3184 5.71175 76.1587 5.67627 76.0522 5.67627C76.0168 5.67627 75.4136 5.72949 74.2427 5.83594C73.0718 5.94238 72.1847 5.99561 71.5815 5.99561H71.2622H70.6235C70.1623 5.99561 69.4704 6.11979 68.5479 6.36816C67.6253 6.58105 66.9689 6.70524 66.5786 6.74072C66.1528 6.7762 65.6916 6.82943 65.1948 6.90039C64.7336 6.97135 64.2191 7.06006 63.6514 7.1665C63.0837 7.27295 62.6401 7.34391 62.3208 7.37939C62.0369 7.37939 62.0369 7.30843 62.3208 7.1665C62.6401 7.02458 62.5869 6.97135 62.1611 7.00684C61.6999 7.00684 60.9548 7.09554 59.9258 7.27295C59.8548 7.27295 59.7661 7.29069 59.6597 7.32617C59.5532 7.36165 59.4645 7.37939 59.3936 7.37939L62.5337 6.79395C62.0724 6.93587 60.0145 7.45036 56.3599 8.3374L50.9844 9.66797C51.5876 9.56152 53.9826 9.06478 58.1694 8.17773C58.3823 8.14225 58.6307 8.08903 58.9146 8.01807L59.5532 7.96484C59.5177 7.96484 59.4468 7.98258 59.3403 8.01807C59.2694 8.05355 59.2161 8.07129 59.1807 8.07129C58.8613 8.14225 58.3291 8.2487 57.584 8.39062C56.8389 8.53255 56.3066 8.639 55.9873 8.70996L54.9761 9.0293H55.0293L54.0713 9.24219L52.3682 9.77441C52.4391 9.73893 52.5278 9.70345 52.6343 9.66797C51.9246 9.84538 50.9489 10.147 49.707 10.5728C48.4652 10.9631 47.6313 11.2114 47.2056 11.3179C47.1701 11.3179 47.0636 11.3534 46.8862 11.4243C46.7443 11.4953 46.6556 11.5308 46.6201 11.5308H46.4072C46.4427 11.5308 46.5137 11.513 46.6201 11.4775C46.7266 11.4421 46.7975 11.4243 46.833 11.4243C46.7975 11.4243 46.7443 11.4421 46.6733 11.4775C46.6024 11.513 46.5492 11.5308 46.5137 11.5308C44.5267 12.0985 42.4333 12.8968 40.2334 13.9258C39.6302 14.1387 38.8141 14.5467 37.7852 15.1499C37.7142 15.1854 37.59 15.2563 37.4126 15.3628C37.2352 15.4692 37.111 15.5402 37.04 15.5757C36.5433 15.7886 35.5675 16.3031 34.1128 17.1191C33.687 17.332 32.8532 17.7933 31.6113 18.5029L31.5049 18.6094C31.0436 18.8577 30.5646 19.1416 30.0679 19.4609C29.6066 19.7448 29.3228 19.9045 29.2163 19.9399C29.0034 20.0464 28.8792 20.0996 28.8438 20.0996C28.8083 20.0641 28.8615 19.9754 29.0034 19.8335C29.7131 19.1239 30.5824 18.4674 31.6113 17.8643C32.5693 17.2256 33.2967 16.7821 33.7935 16.5337C34.1128 16.3208 34.1838 16.2144 34.0063 16.2144C33.8644 16.2853 33.758 16.3208 33.687 16.3208C32.4451 16.8175 30.7952 17.8465 28.7373 19.4077C27.0342 20.7915 25.9165 21.8382 25.3843 22.5479C24.4972 23.7188 23.9827 24.6945 23.8408 25.4751V25.5815C23.6989 26.7524 23.7699 27.675 24.0537 28.3491C24.1956 28.8104 24.6746 29.4491 25.4907 30.2651C26.0229 30.7974 26.9277 31.5957 28.2051 32.6602C28.5244 32.9085 28.9325 33.2279 29.4292 33.6182L29.855 33.9375C29.855 33.9375 29.8195 33.9198 29.7485 33.8843C29.3937 33.6004 28.8438 33.2811 28.0986 32.9263C27.9212 32.8198 27.6906 32.6779 27.4067 32.5005C27.1584 32.2876 26.9987 32.1634 26.9277 32.1279C26.7148 32.0215 26.5374 31.915 26.3955 31.8086C26.2536 31.7021 26.1471 31.6134 26.0762 31.5425C26.0052 31.4715 25.9875 31.4183 26.0229 31.3828C25.881 31.0635 25.6681 30.7264 25.3843 30.3716C25.3133 30.3006 25.1536 30.141 24.9053 29.8926C24.6924 29.6442 24.4972 29.3958 24.3198 29.1475C24.1424 28.8991 24.0182 28.6685 23.9473 28.4556C23.9473 28.4201 23.9118 28.3314 23.8408 28.1895C23.7699 28.0475 23.7344 27.9411 23.7344 27.8701C23.6279 27.5508 23.557 27.2314 23.5215 26.9121C23.5215 26.5928 23.5392 26.2912 23.5747 26.0073C23.6102 25.688 23.6279 25.5106 23.6279 25.4751C23.6989 25.1558 23.7166 24.9961 23.6812 24.9961C23.6457 24.9961 23.5924 25.1558 23.5215 25.4751C23.3796 25.9009 23.3086 26.4154 23.3086 27.0186C23.3086 27.196 23.415 27.7104 23.6279 28.562C23.6279 28.633 23.9295 29.0588 24.5327 29.8394C24.0715 29.4136 23.7699 28.9878 23.6279 28.562L23.2021 26.8057C23.2021 24.9606 23.6457 23.7188 24.5327 23.0801C24.8521 22.9382 25.1004 22.7253 25.2778 22.4414C25.3488 22.3704 25.4552 22.193 25.5972 21.9092C25.7391 21.6253 25.881 21.3947 26.0229 21.2173C26.6616 20.3657 27.4245 19.5674 28.3115 18.8223C28.8083 18.5029 29.0566 18.3787 29.0566 18.4497C29.0212 18.4852 28.9679 18.5384 28.897 18.6094C28.897 18.6449 28.9147 18.6449 28.9502 18.6094C29.0212 18.5739 29.1276 18.5207 29.2695 18.4497C29.4115 18.3433 29.5711 18.2368 29.7485 18.1304C29.9614 17.9884 30.1921 17.8465 30.4404 17.7046C30.7243 17.5272 31.0081 17.3498 31.292 17.1724C31.5758 16.9595 31.8952 16.7466 32.25 16.5337C32.6048 16.3208 32.9596 16.1079 33.3145 15.895C34.9821 14.9725 37.6077 13.7306 41.1914 12.1694C42.8236 11.4598 44.4202 10.8566 45.9814 10.3599C50.0264 8.97607 54.639 7.76969 59.8193 6.74072C61.0257 6.52783 62.374 6.27946 63.8643 5.99561C65.39 5.67627 66.5254 5.44564 67.2705 5.30371C68.0511 5.16178 68.6188 5.09082 68.9736 5.09082H71.4751L71.5815 4.98438C71.8654 4.94889 72.2025 4.91341 72.5928 4.87793C73.0186 4.84245 73.7814 4.78923 74.8813 4.71826C75.9813 4.6473 76.7796 4.70052 77.2764 4.87793C77.6312 4.87793 77.9505 4.94889 78.2344 5.09082L78.4473 5.30371L78.2344 4.87793V4.55859C78.0924 4.77148 77.986 4.94889 77.915 5.09082C77.7021 5.41016 77.3828 5.78271 76.957 6.2085C76.7441 6.42139 76.0522 6.90039 74.8813 7.64551C73.7459 8.35514 73.125 8.74544 73.0186 8.81641L70.6235 10.5728C70.4106 10.7502 70.3219 10.8566 70.3574 10.8921C70.3929 10.8921 70.5171 10.8211 70.73 10.6792C74.3846 8.51481 76.5312 7.09554 77.1699 6.42139C77.4538 6.13753 77.7731 5.72949 78.1279 5.19727C78.1634 5.1263 78.1989 5.05534 78.2344 4.98438C78.3053 4.91341 78.3586 4.86019 78.394 4.82471C78.4295 4.75374 78.4473 4.70052 78.4473 4.66504V4.87793L78.6602 5.09082C78.5892 5.01986 78.4827 4.94889 78.3408 4.87793C78.1989 4.80697 77.8441 4.70052 77.2764 4.55859C76.9925 4.48763 76.5312 4.45215 75.8926 4.45215C75.2539 4.45215 74.5443 4.46989 73.7637 4.50537C73.0186 4.54085 72.5573 4.55859 72.3799 4.55859H71.4751C70.2687 4.55859 68.9914 4.66504 67.6431 4.87793C66.3302 5.09082 64.8577 5.39242 63.2256 5.78271C61.6289 6.17301 60.4935 6.42139 59.8193 6.52783C55.526 7.37939 50.8779 8.58577 45.875 10.147C45.6266 10.2179 44.8638 10.4663 43.5864 10.8921C45.7508 9.93408 45.5911 9.95182 43.1074 10.9453C39.1335 12.613 37.04 13.5 36.8271 13.6064C36.3304 13.8548 35.6562 14.2096 34.8047 14.6709C33.9531 15.1322 33.3854 15.4338 33.1016 15.5757C30.6178 16.995 28.9502 18.0062 28.0986 18.6094C28.0277 18.6803 27.9035 18.769 27.7261 18.8755C27.5841 18.9465 27.4954 18.9997 27.46 19.0352C26.2181 19.8867 25.0827 20.9689 24.0537 22.2817C23.0602 23.5946 22.4925 24.8542 22.3506 26.0605C22.3506 26.5928 22.3151 27.1073 22.2441 27.604C22.1732 28.1007 22.3328 28.7039 22.7231 29.4136C23.1134 30.1232 23.6634 30.8506 24.373 31.5957C25.1182 32.3408 26.2891 33.2279 27.8857 34.2568C29.4824 35.2858 31.4517 36.4035 33.7935 37.6099C34.1128 37.7873 34.5563 38.0711 35.124 38.4614C35.6917 38.8162 36.1175 39.0646 36.4014 39.2065C37.5723 40.0226 38.1577 40.4661 38.1577 40.5371C38.0868 40.6081 38.1577 40.6968 38.3706 40.8032C38.5125 40.8387 38.7609 40.9274 39.1157 41.0693C39.6834 41.2467 42.38 42.7015 47.2056 45.4336C52.9536 48.8753 56.5373 51.0575 57.9565 51.98C62.0015 54.7121 64.911 56.9297 66.6851 58.6328C68.1398 60.0876 69.1156 61.1698 69.6123 61.8794C70.3219 62.8374 70.8364 63.8309 71.1558 64.8599C71.1558 64.8953 71.1735 64.9486 71.209 65.0195C71.2445 65.0905 71.2622 65.1437 71.2622 65.1792C71.4751 66.2791 71.4751 67.3258 71.2622 68.3193C71.0493 69.1709 70.4284 70.1821 69.3994 71.353C68.0511 72.7013 66.756 73.6948 65.5142 74.3335C63.6336 75.4334 61.5579 76.3382 59.2871 77.0479C57.8678 77.8639 55.6502 78.8042 52.6343 79.8687C49.4054 80.9686 46.425 81.8379 43.6929 82.4766C36.3127 84.2507 29.6243 84.978 23.6279 84.6587C21.0023 84.5522 18.5718 84.1974 16.3364 83.5942C16.159 83.5588 15.8752 83.4701 15.4849 83.3281C15.13 83.1862 14.8994 83.0975 14.793 83.062C12.0254 82.0685 9.93197 80.6138 8.5127 78.6978L8.14014 78.272C8.31755 78.3429 8.47721 78.4494 8.61914 78.5913C8.72559 78.6623 8.93848 78.8574 9.25781 79.1768C9.61263 79.4961 9.93197 79.7622 10.2158 79.9751C10.4997 80.2235 10.8368 80.5073 11.2271 80.8267C10.9077 80.5428 10.3932 80.0461 9.68359 79.3364C10.9255 80.5783 12.6995 81.625 15.0059 82.4766C17.596 83.3991 20.5055 83.9136 23.7344 84.02C29.9437 84.3039 36.561 83.5765 43.5864 81.8379L49.0151 80.2944C49.0506 80.2944 48.8732 80.3477 48.4829 80.4541C48.0926 80.596 47.4362 80.7912 46.5137 81.0396C45.6266 81.2879 44.6509 81.5186 43.5864 81.7314C35.8159 83.4346 29.1986 84.1265 23.7344 83.8071C20.4701 83.5942 17.6493 83.0443 15.272 82.1572C12.6463 81.1637 10.6416 79.8154 9.25781 78.1123C7.51921 76.1253 6.6499 73.8013 6.6499 71.1401V70.9272C6.6499 68.2661 6.80957 66.9355 7.12891 66.9355C7.30632 66.9355 7.39502 66.9355 7.39502 66.9355C7.4305 66.8646 7.4305 66.563 7.39502 66.0308C7.39502 66.0662 7.37728 66.1904 7.3418 66.4033C7.30632 66.5807 7.27083 66.8114 7.23535 67.0952C7.19987 67.3791 7.16439 67.7339 7.12891 68.1597C7.09342 68.5854 7.05794 69.029 7.02246 69.4902C7.02246 69.987 7.0402 70.5369 7.07568 71.1401C7.21761 73.7658 8.05143 75.9834 9.57715 77.793C11.0319 79.5671 12.9657 80.8799 15.3784 81.7314C17.6493 82.583 20.4346 83.133 23.7344 83.3813C29.6953 83.7716 36.2772 83.1152 43.48 81.4121C46.3185 80.7734 49.2635 79.9396 52.3149 78.9106C54.9406 77.9881 57.1227 77.0479 58.8613 76.0898C59.1097 75.9834 59.4113 75.8237 59.7661 75.6108C60.1209 75.4334 60.3516 75.327 60.458 75.2915C60.5999 75.1851 60.5822 75.1673 60.4048 75.2383C59.908 75.4512 59.3581 75.6463 58.7549 75.8237C56.8389 76.8172 54.6567 77.7752 52.2085 78.6978C52.1021 78.7332 51.8537 78.8219 51.4634 78.9639C51.1086 79.1058 50.8424 79.1945 50.665 79.23C49.0329 79.8332 46.6379 80.4896 43.48 81.1992C36.3836 82.9378 29.8018 83.6297 23.7344 83.2749C20.4346 83.0265 17.6493 82.4766 15.3784 81.625C12.8592 80.7025 10.9255 79.3896 9.57715 77.6865C9.04492 77.0124 8.61914 76.3205 8.2998 75.6108C8.01595 74.9367 7.83854 74.4222 7.76758 74.0674L7.71436 73.5352L7.87402 74.0674C7.98047 74.4222 8.2111 74.9189 8.56592 75.5576C8.92074 76.2318 9.36426 76.8704 9.89648 77.4736C11.1738 78.9639 13.0721 80.1702 15.5913 81.0928C18.1105 81.9798 20.8249 82.4766 23.7344 82.583C29.6243 82.8314 36.1353 82.104 43.2671 80.4009C46.8507 79.5493 48.7668 79.1235 49.0151 79.1235C50.4699 78.4139 51.3924 77.9704 51.7827 77.793C49.2635 78.751 46.425 79.5848 43.2671 80.2944C36.2062 81.9266 29.7308 82.4766 23.8408 81.9443C23.5924 81.9089 22.5457 81.7669 20.7007 81.5186C19.9556 81.3766 19.6007 81.2879 19.6362 81.2524C19.6362 81.217 19.9733 81.1992 20.6475 81.1992H22.9893H23.8408C25.2956 81.554 28.4357 81.3944 33.2612 80.7202C38.0868 80.0815 43.1252 79.1235 48.3765 77.8462C53.6632 76.6043 58.3823 74.9722 62.5337 72.9497C66.6851 70.9627 68.7607 68.958 68.7607 66.9355C68.7607 65.4098 67.9092 63.7599 66.2061 61.9858C64.5029 60.1763 62.1434 58.3667 59.1274 56.5571C56.1115 54.7476 53.2375 53.1331 50.5054 51.7139C47.8088 50.2591 44.6864 48.6802 41.1382 46.9771C37.6255 45.2739 35.2482 44.103 34.0063 43.4644ZM48.8022 79.4429C47.3475 79.9041 46.5846 80.1525 46.5137 80.188C46.6911 80.1525 46.6733 80.1702 46.4604 80.2412C46.425 80.2767 46.3717 80.2944 46.3008 80.2944C45.875 80.4718 45.875 80.5073 46.3008 80.4009C46.6911 80.2944 47.383 80.0815 48.3765 79.7622L50.9312 78.9639H50.8779V78.9106C49.7425 79.1945 49.0506 79.3719 48.8022 79.4429ZM38.3706 41.9741C38.7254 42.187 38.9738 42.3289 39.1157 42.3999C39.2576 42.4709 39.4883 42.5951 39.8076 42.7725C40.1624 42.9499 40.4108 43.0741 40.5527 43.145C41.5817 43.7127 41.5994 43.695 40.606 43.0918C40.3931 42.9499 39.9673 42.7015 39.3286 42.3467C38.8674 42.0628 38.5125 41.8499 38.2642 41.708C37.4836 41.2822 36.6852 40.821 35.8691 40.3242L34.8047 39.7388C34.8757 39.8097 34.9998 39.8984 35.1772 40.0049C35.3547 40.1823 35.5498 40.3242 35.7627 40.4307C35.8691 40.5016 36.153 40.6613 36.6143 40.9097C37.0755 41.1226 37.4303 41.3177 37.6787 41.4951C37.8206 41.5661 38.0513 41.7257 38.3706 41.9741ZM40.3398 42.3999C40.5882 42.5418 40.943 42.7192 41.4043 42.9321L42.7349 43.5708C42.4865 43.3224 41.4575 42.7015 39.6479 41.708C38.1222 40.821 36.9691 40.1468 36.1885 39.6855L33.8999 38.4614C34.4676 38.9227 35.195 39.4017 36.082 39.8984C36.224 39.9694 36.5965 40.1646 37.1997 40.4839C37.8029 40.8032 38.2642 41.0693 38.5835 41.2822C38.8319 41.3887 39.1512 41.5838 39.5415 41.8677C39.9673 42.1515 40.2334 42.3289 40.3398 42.3999ZM17.5605 83.3813C17.3477 83.3459 17.0638 83.2749 16.709 83.1685C16.3896 83.062 16.1235 82.991 15.9106 82.9556H15.8574L14.6865 82.7427C14.8285 82.8136 15.4849 83.0265 16.6558 83.3813C16.6912 83.3813 16.7799 83.3991 16.9219 83.4346C17.0638 83.4701 17.1525 83.4878 17.188 83.4878L18.6782 83.7539L18.625 83.7007C18.3766 83.5942 18.0218 83.4878 17.5605 83.3813ZM35.603 84.3394C38.5835 83.9491 41.3156 83.4878 43.7993 82.9556C45.9992 82.4588 48.9797 81.5718 52.7407 80.2944C55.3664 79.4074 57.6195 78.4316 59.5 77.3672C62.0192 76.4447 64.0949 75.5754 65.7271 74.7593C67.2882 73.9432 68.6366 72.9674 69.772 71.832C70.73 70.874 71.3687 69.7386 71.688 68.4258C72.0073 67.3258 72.0073 66.2082 71.688 65.0728C71.2977 63.618 70.7655 62.4471 70.0913 61.5601L69.9849 61.4536C69.3817 60.6021 68.3882 59.5553 67.0044 58.3135C64.9819 56.362 62.0724 54.1089 58.2759 51.5542C58.2404 51.5542 58.2049 51.5365 58.1694 51.501C58.134 51.4655 58.0985 51.4478 58.063 51.4478C53.6987 48.6802 50.186 46.5335 47.5249 45.0078C45.6799 43.8724 44.7218 43.216 44.6509 43.0386C44.5799 42.9676 44.5622 42.9321 44.5977 42.9321C44.9525 42.9676 45.9992 43.5176 47.7378 44.582C49.7957 45.682 51.7827 46.8351 53.6987 48.0415C56.3953 49.8156 58.0452 50.88 58.6484 51.2349C59.8548 52.0155 60.9015 52.7428 61.7886 53.417C62.7111 54.0557 63.4562 54.6056 64.0239 55.0669C64.6271 55.5282 64.9642 55.7765 65.0352 55.812C65.0352 55.812 65.0706 55.812 65.1416 55.812C65.0352 55.6701 64.3965 55.1201 63.2256 54.1621C63.1191 54.0557 62.9417 53.9137 62.6934 53.7363L61.1499 52.459L61.2563 52.5122C61.2918 52.5122 61.5047 52.6541 61.895 52.938C62.3208 53.1864 62.9062 53.5944 63.6514 54.1621C64.3965 54.6943 65.1239 55.2798 65.8335 55.9185C66.1174 56.1313 66.4722 56.4329 66.8979 56.8232C67.3237 57.1781 67.5898 57.4087 67.6963 57.5151C67.9447 57.728 68.193 57.9587 68.4414 58.207C68.6898 58.4554 68.9027 58.686 69.0801 58.8989C69.2575 59.1118 69.4172 59.307 69.5591 59.4844C69.701 59.6263 69.8252 59.7505 69.9316 59.8569L70.0913 60.0166L69.3994 59.0586C68.9736 58.5264 68.4769 57.9764 67.9092 57.4087C66.4899 55.9894 64.8223 54.6056 62.9062 53.2573C60.9902 51.909 59.6774 51.1107 58.9678 50.8623L58.8613 50.7559C58.613 50.6139 58.1162 50.3301 57.3711 49.9043C56.626 49.4785 55.5793 48.8753 54.231 48.0947C52.9181 47.2786 51.8005 46.6045 50.8779 46.0723C50.3812 45.7884 49.8844 45.5046 49.3877 45.2207C48.891 44.9368 48.4119 44.653 47.9507 44.3691L45.7153 42.8789L45.7686 42.9321C47.1169 43.5708 47.9152 43.8901 48.1636 43.8901C48.2345 43.8901 48.2345 43.8547 48.1636 43.7837C47.7733 43.3934 46.6556 42.7015 44.8105 41.708C42.5042 40.3952 41.3511 39.863 41.3511 40.1113C41.3511 40.1823 41.3688 40.2533 41.4043 40.3242C41.5817 40.5726 41.6349 40.6968 41.564 40.6968C41.5285 40.6968 40.9963 40.3065 39.9673 39.5259C39.1157 38.8872 38.7254 38.4969 38.7964 38.355C38.9383 38.355 38.9383 38.3195 38.7964 38.2485C39.3996 38.5679 40.2689 39.0646 41.4043 39.7388C42.5752 40.3774 43.4445 40.8564 44.0122 41.1758C44.4735 41.4242 45.1831 41.8499 46.1411 42.4531C47.0991 43.0208 47.8088 43.4289 48.27 43.6772C51.6763 45.6642 53.8939 46.9771 54.9229 47.6157C55.3841 47.8996 56.076 48.3431 56.9985 48.9463C57.9565 49.514 58.6839 49.9398 59.1807 50.2236C60.9902 51.359 63.1724 52.9557 65.7271 55.0137C67.2173 56.291 68.0156 56.9829 68.1221 57.0894C69.222 58.1893 70.2687 59.4312 71.2622 60.8149C72.1493 62.0923 72.7702 63.3696 73.125 64.647C73.4443 65.9953 73.4443 67.3968 73.125 68.8516C72.8411 70.0225 72.2557 71.1224 71.3687 72.1514C71.2977 72.2933 71.1203 72.5062 70.8364 72.79C69.9494 73.6771 68.743 74.5819 67.2173 75.5044C67.1463 75.5399 67.0044 75.6108 66.7915 75.7173C66.5786 75.8592 66.4367 75.9479 66.3657 75.9834C66.1883 76.0898 65.9045 76.2495 65.5142 76.4624C65.1593 76.6753 64.9287 76.7995 64.8223 76.835C64.5384 76.9414 64.2013 77.0833 63.811 77.2607C63.4207 77.4382 63.0837 77.5801 62.7998 77.6865C62.5514 77.793 62.3918 77.8639 62.3208 77.8994C62.2144 77.9349 62.0724 77.9881 61.895 78.0591C61.7176 78.1655 61.5757 78.2365 61.4692 78.272C61.4692 78.2365 61.5047 78.1833 61.5757 78.1123C61.3983 78.1478 61.1144 78.2365 60.7241 78.3784C60.3693 78.5558 60.1032 78.6623 59.9258 78.6978C59.8548 78.7332 59.7306 78.8042 59.5532 78.9106C59.3758 79.0171 59.2516 79.0881 59.1807 79.1235C59.2516 79.0881 59.3758 78.9993 59.5532 78.8574C59.7306 78.7155 59.8548 78.6268 59.9258 78.5913C60.1032 78.5203 60.7241 78.2188 61.7886 77.6865C64.2723 76.4092 65.7271 75.6463 66.1528 75.3979C67.856 74.5109 69.2752 73.4997 70.4106 72.3643C71.4396 71.4417 72.2025 70.2354 72.6992 68.7451C72.9121 67.8936 73.0186 67.3968 73.0186 67.2549C73.054 66.971 73.054 66.7227 73.0186 66.5098C73.0186 66.2969 73.0008 66.084 72.9653 65.8711C72.9653 65.6582 72.9476 65.4985 72.9121 65.3921C72.8766 65.2502 72.8411 65.126 72.8057 65.0195V64.8599L72.9121 65.7646V65.9243L72.6992 67.6807C72.6992 67.2194 72.6637 66.634 72.5928 65.9243C72.6992 66.4565 72.5928 67.3613 72.2734 68.6387C71.9186 69.7741 71.2267 70.945 70.1978 72.1514C69.4881 72.932 68.2108 73.8368 66.3657 74.8657L66.0464 75.1851C64.1304 76.214 61.9837 77.1188 59.6064 77.8994L59.5 78.0059C57.7614 78.9639 55.5793 79.9219 52.9536 80.8799C49.4409 82.0863 46.425 82.991 43.9058 83.5942C43.1252 83.7716 42.3446 83.9313 41.564 84.0732C40.8188 84.2507 40.2334 84.3748 39.8076 84.4458C39.3818 84.5522 39.1157 84.6232 39.0093 84.6587L38.4238 84.8716L40.2334 84.5522C41.3688 84.3748 42.6284 84.1265 44.0122 83.8071C44.6154 83.6652 45.2718 83.4878 45.9814 83.2749C46.6911 83.0975 47.4717 82.8669 48.3232 82.583C49.1748 82.2992 49.849 82.0863 50.3457 81.9443C50.736 81.8379 51.1973 81.6605 51.7295 81.4121C52.2972 81.1992 52.7052 81.0573 52.9536 80.9863C53.5213 80.8089 54.0713 80.6138 54.6035 80.4009C55.1357 80.188 55.5438 80.0106 55.8276 79.8687C56.147 79.7622 56.3599 79.6912 56.4663 79.6558C56.8566 79.5493 56.8921 79.6558 56.5728 79.9751L56.3599 80.2944C55.4019 80.7202 54.3374 81.1283 53.1665 81.5186C51.0376 82.2637 49.1571 82.8491 47.5249 83.2749C46.2476 83.6652 45.0767 83.9491 44.0122 84.1265C39.8254 85.049 36.8449 85.599 35.0708 85.7764C30.9194 86.2376 27.1406 86.3796 23.7344 86.2021H23.6279C23.5924 86.2021 22.7231 86.0957 21.02 85.8828C21.1265 85.8828 21.5168 85.9006 22.1909 85.936C22.9006 85.9715 23.3796 85.9893 23.6279 85.9893C23.9118 85.9893 24.3021 86.007 24.7988 86.0425C25.2956 86.078 25.6326 86.0957 25.8101 86.0957C27.1938 86.2021 28.3293 86.1667 29.2163 85.9893H29.0566C28.9857 85.9893 28.8792 85.9893 28.7373 85.9893C28.6309 85.9893 28.4712 85.9893 28.2583 85.9893C28.0809 85.9893 27.868 85.9715 27.6196 85.936C27.4067 85.936 27.1406 85.936 26.8213 85.936C26.5374 85.936 26.2358 85.9183 25.9165 85.8828C25.5972 85.8828 25.2424 85.8651 24.8521 85.8296C24.4618 85.8296 24.0537 85.8118 23.6279 85.7764C20.4701 85.6344 17.4541 85.0135 14.5801 83.9136C11.7061 82.8491 9.41748 81.3234 7.71436 79.3364C6.68538 78.0591 5.99349 76.8172 5.63867 75.6108C5.21289 74.0851 5 72.6304 5 71.2466C5 68.8693 5.479 65.9421 6.43701 62.4648C6.82731 60.6908 7.00472 59.8037 6.96924 59.8037C6.75635 59.8037 6.38379 60.7617 5.85156 62.6777C5.07096 65.9066 4.82259 68.7629 5.10645 71.2466C5.10645 71.2821 5.12419 71.353 5.15967 71.4595C5.19515 71.6014 5.21289 71.6901 5.21289 71.7256C5.28385 71.2998 5.37256 71.3885 5.479 71.9917C5.479 72.0981 5.49674 72.2578 5.53223 72.4707C5.67415 73.6416 5.67415 74.2271 5.53223 74.2271C5.49674 74.2625 5.479 74.3158 5.479 74.3867C5.51449 74.4932 5.56771 74.6528 5.63867 74.8657C5.74512 75.1141 5.88704 75.3625 6.06445 75.6108C6.77409 77.0656 7.46598 78.201 8.14014 79.0171C9.27555 80.2944 10.5529 81.3411 11.9722 82.1572C12.7882 82.6895 13.693 83.133 14.6865 83.4878C15.3962 83.7362 16.1058 83.9313 16.8154 84.0732C17.5251 84.2507 18.0573 84.3571 18.4121 84.3926L18.9443 84.4458C20.1152 84.7297 21.6764 84.9071 23.6279 84.978C27.46 85.12 31.4517 84.9071 35.603 84.3394ZM68.8672 59.4312C69.1865 59.786 69.3994 60.0343 69.5059 60.1763C69.6123 60.3182 69.9494 60.673 70.5171 61.2407C70.5526 61.2762 70.6058 61.3472 70.6768 61.4536C70.7477 61.5601 70.8009 61.631 70.8364 61.6665C71.3687 62.3761 71.4041 62.3939 70.9429 61.7197C70.8719 61.5778 70.7655 61.4181 70.6235 61.2407C70.5526 61.1343 70.3929 60.9391 70.1445 60.6553C69.8962 60.3714 69.7188 60.1585 69.6123 60.0166L68.1753 58.5264C67.714 58.0296 67.4657 57.7635 67.4302 57.728L68.2285 58.6328C68.335 58.7747 68.5479 59.0409 68.8672 59.4312ZM39.8076 40.2178C39.6302 40.1113 39.506 40.0404 39.4351 40.0049C39.3641 39.9694 39.2576 39.8984 39.1157 39.792C38.9738 39.6501 38.8674 39.5614 38.7964 39.5259C38.6545 39.4549 38.4416 39.3485 38.1577 39.2065C37.9093 39.0291 37.7497 38.9227 37.6787 38.8872L37.6255 38.834L39.0093 39.5259C39.0448 39.5614 39.1157 39.6146 39.2222 39.6855C39.3286 39.721 39.3996 39.7565 39.4351 39.792C40.535 40.3952 41.0317 40.6968 40.9253 40.6968C40.8543 40.6968 40.6237 40.6081 40.2334 40.4307C40.1624 40.3952 40.0205 40.3242 39.8076 40.2178ZM45.3428 83.7007C45.2363 83.7362 45.0057 83.7716 44.6509 83.8071C44.3315 83.8426 44.1187 83.8781 44.0122 83.9136C43.4445 84.0555 43.0542 84.1619 42.8413 84.2329L42.2559 84.3926C42.4688 84.3571 43.0542 84.2329 44.0122 84.02C44.0832 84.02 44.1896 84.0023 44.3315 83.9668C44.4735 83.9313 44.5799 83.9136 44.6509 83.9136L47.4185 83.1685C46.283 83.4523 45.5911 83.6297 45.3428 83.7007ZM49.0684 9.66797C48.7845 9.77441 48.5894 9.84538 48.4829 9.88086C48.3765 9.91634 48.1991 10.005 47.9507 10.147C47.7023 10.2534 47.5249 10.3244 47.4185 10.3599L46.6733 10.5728C47.1701 10.3599 47.9862 10.0938 49.1216 9.77441C49.4054 9.70345 49.8135 9.57926 50.3457 9.40186L51.9956 8.86963C51.9246 8.86963 51.8182 8.88737 51.6763 8.92285C51.1086 9.06478 50.4521 9.24219 49.707 9.45508C49.6006 9.49056 49.3877 9.56152 49.0684 9.66797ZM38.0513 14.3516C37.1997 14.7773 36.7917 15.0435 36.8271 15.1499C36.9336 15.1144 37.3771 14.937 38.1577 14.6177C38.9383 14.2983 40.0028 13.8726 41.3511 13.3403C42.6994 12.8081 43.9945 12.3114 45.2363 11.8501C45.4137 11.8146 45.6444 11.7437 45.9282 11.6372C46.2121 11.5308 46.3717 11.4598 46.4072 11.4243C47.5426 10.9985 48.9619 10.5018 50.665 9.93408L52.2085 9.34863C51.9601 9.34863 49.9909 9.93408 46.3008 11.105C45.4492 11.4243 44.5444 11.7437 43.5864 12.063C43.5155 12.0985 43.3735 12.1694 43.1606 12.2759C42.9478 12.3468 42.8058 12.4001 42.7349 12.4355C41.4575 12.8968 39.8963 13.5355 38.0513 14.3516Z" fill="white"/>
</g>
<defs>
<filter id="filter0_d_32_139" x="0.680664" y="0.194336" width="84.96" height="94.2739" filterUnits="userSpaceOnUse" color-interpolation-filters="sRGB">
<feFlood flood-opacity="0" result="BackgroundImageFix"/>
<feColorMatrix in="SourceAlpha" type="matrix" values="0 0 0 0 0 0 0 0 0 0 0 0 0 0 0 0 0 0 127 0" result="hardAlpha"/>
<feOffset dy="4"/>
<feGaussianBlur stdDeviation="2"/>
<feComposite in2="hardAlpha" operator="out"/>
<feColorMatrix type="matrix" values="0 0 0 0 0 0 0 0 0 0 0 0 0 0 0 0 0 0 0.25 0"/>
<feBlend mode="normal" in2="BackgroundImageFix" result="effect1_dropShadow_32_139"/>
<feBlend mode="normal" in="SourceGraphic" in2="effect1_dropShadow_32_139" result="shape"/>
</filter>
</defs>
</svg>
